name C:/MyDriveSym/Projects/mobilecap/Data\Session20210819_0002\mocap\ForceDataProcessed\walking2_forces.mot
datacolumns 19
datarows 29
range 0.00000000 0.01400000
endheader 
time	R_ground_force_vx	R_ground_force_vy	R_ground_force_vz	R_ground_force_px	R_ground_force_py	R_ground_force_pz	R_ground_torque_x	R_ground_torque_y	R_ground_torque_z	L_ground_force_vx	L_ground_force_vy	L_ground_force_vz	L_ground_force_px	L_ground_force_py	L_ground_force_pz	L_ground_torque_x	L_ground_torque_y	L_ground_torque_z	
          0.00000000	        -45.51607000	        275.07754400	         14.80296500	          0.09648900	          0.00600000	         -0.22708000	          0.00000000	          0.00729700	          0.00000000	          0.00000000	          0.00000000	          0.00000000	          0.68541900	          0.00000000	         -0.22386100	          0.00000000	          0.00000000	          0.00000000	
          0.00050000	        -46.01529700	        276.37013600	         14.70983000	          0.09648900	          0.00600000	         -0.22708000	          0.00000000	          0.00900800	          0.00000000	          0.00000000	          0.00000000	          0.00000000	          0.68541900	          0.00000000	         -0.22386100	          0.00000000	          0.00000000	          0.00000000	
          0.00100000	        -46.51692400	        277.67270100	         14.61550200	          0.09648900	          0.00600000	         -0.22708000	          0.00000000	          0.01074500	          0.00000000	          0.00000000	          0.00000000	          0.00000000	          0.68541900	          0.00000000	         -0.22386100	          0.00000000	          0.00000000	          0.00000000	
          0.00150000	        -47.02091600	        278.98520900	         14.51997300	          0.09648900	          0.00600000	         -0.22708000	          0.00000000	          0.01250900	          0.00000000	          0.00000000	          0.00000000	          0.00000000	          0.68541900	          0.00000000	         -0.22386100	          0.00000000	          0.00000000	          0.00000000	
          0.00200000	        -47.52723700	        280.30763200	         14.42323800	          0.09675500	          0.00600000	         -0.22704400	          0.00000000	          0.01430000	          0.00000000	          0.00000000	          0.00000000	          0.00000000	          0.68541900	          0.00000000	         -0.22386100	          0.00000000	          0.00000000	          0.00000000	
          0.00250000	        -48.03584900	        281.63993800	         14.32529000	          0.09702200	          0.00600000	         -0.22700800	          0.00000000	          0.01611800	          0.00000000	          0.00000000	          0.00000000	          0.00000000	          0.68541900	          0.00000000	         -0.22386100	          0.00000000	          0.00000000	          0.00000000	
          0.00300000	        -48.54671400	        282.98209400	         14.22612300	          0.09728900	          0.00600000	         -0.22697100	          0.00000000	          0.01796300	          0.00000000	          0.00000000	          0.00000000	          0.00000000	          0.68541900	          0.00000000	         -0.22386100	          0.00000000	          0.00000000	          0.00000000	
          0.00350000	        -49.05979300	        284.33406600	         14.12573100	          0.09755600	          0.00600000	         -0.22693400	          0.00000000	          0.01983600	          0.00000000	          0.00000000	          0.00000000	          0.00000000	          0.68541900	          0.00000000	         -0.22386100	          0.00000000	          0.00000000	          0.00000000	
          0.00400000	        -49.57504900	        285.69581600	         14.02410800	          0.09782400	          0.00600000	         -0.22689700	          0.00000000	          0.02173600	          0.00000000	          0.00000000	          0.00000000	          0.00000000	          0.68541900	          0.00000000	         -0.22386100	          0.00000000	          0.00000000	          0.00000000	
          0.00450000	        -50.09244100	        287.06730800	         13.92124800	          0.09809200	          0.00600000	         -0.22685900	          0.00000000	          0.02366400	          0.00000000	          0.00000000	          0.00000000	          0.00000000	          0.68541900	          0.00000000	         -0.22386100	          0.00000000	          0.00000000	          0.00000000	
          0.00500000	        -50.61192900	        288.44850100	         13.81714400	          0.09836000	          0.00600000	         -0.22682100	          0.00000000	          0.02562000	          0.00000000	          0.00000000	          0.00000000	          0.00000000	          0.68541900	          0.00000000	         -0.22386100	          0.00000000	          0.00000000	          0.00000000	
          0.00550000	        -51.13347200	        289.83935300	         13.71179200	          0.09862900	          0.00600000	         -0.22678300	          0.00000000	          0.02760300	          0.00000000	          0.00000000	          0.00000000	          0.00000000	          0.68541900	          0.00000000	         -0.22386100	          0.00000000	          0.00000000	          0.00000000	
          0.00600000	        -51.65702900	        291.23982100	         13.60518500	          0.09889800	          0.00600000	         -0.22674400	          0.00000000	          0.02961400	          0.00000000	          0.00000000	          0.00000000	          0.00000000	          0.68541900	          0.00000000	         -0.22386100	          0.00000000	          0.00000000	          0.00000000	
          0.00650000	        -52.18255900	        292.64986100	         13.49731700	          0.09916700	          0.00600000	         -0.22670400	          0.00000000	          0.03165200	          0.00000000	          0.00000000	          0.00000000	          0.00000000	          0.68541900	          0.00000000	         -0.22386100	          0.00000000	          0.00000000	          0.00000000	
          0.00700000	        -52.71002000	        294.06942400	         13.38818300	          0.09943600	          0.00600000	         -0.22666500	          0.00000000	          0.03371900	          0.00000000	          0.00000000	          0.00000000	          0.00000000	          0.68541900	          0.00000000	         -0.22386100	          0.00000000	          0.00000000	          0.00000000	
          0.00750000	        -53.23936900	        295.49846400	         13.27777700	          0.09970500	          0.00600000	         -0.22662500	          0.00000000	          0.03581300	          0.00000000	          0.00000000	          0.00000000	          0.00000000	          0.68541900	          0.00000000	         -0.22386100	          0.00000000	          0.00000000	          0.00000000	
          0.00800000	        -53.77056300	        296.93692800	         13.16609400	          0.09997500	          0.00600000	         -0.22658400	          0.00000000	          0.03793500	          0.00000000	          0.00000000	          0.00000000	          0.00000000	          0.68541900	          0.00000000	         -0.22386100	          0.00000000	          0.00000000	          0.00000000	
          0.00850000	        -54.30356000	        298.38476500	         13.05312700	          0.10024500	          0.00600000	         -0.22654300	          0.00000000	          0.04008400	          0.00000000	          0.00000000	          0.00000000	          0.00000000	          0.68541900	          0.00000000	         -0.22386100	          0.00000000	          0.00000000	          0.00000000	
          0.00900000	        -54.83831600	        299.84192100	         12.93887200	          0.10051500	          0.00600000	         -0.22650200	          0.00000000	          0.04226100	          0.00000000	          0.00000000	          0.00000000	          0.00000000	          0.68541900	          0.00000000	         -0.22386100	          0.00000000	          0.00000000	          0.00000000	
          0.00950000	        -55.37478700	        301.30834000	         12.82332200	          0.10078500	          0.00600000	         -0.22646000	          0.00000000	          0.04446600	          0.00000000	          0.00000000	          0.00000000	          0.00000000	          0.68541900	          0.00000000	         -0.22386100	          0.00000000	          0.00000000	          0.00000000	
          0.01000000	        -55.91293100	        302.78396600	         12.70647300	          0.10105500	          0.00600000	         -0.22641800	          0.00000000	          0.04669800	          0.00000000	          0.00000000	          0.00000000	          0.00000000	          0.68541900	          0.00000000	         -0.22386100	          0.00000000	          0.00000000	          0.00000000	
          0.01050000	        -56.45270200	        304.26873700	         12.58831900	          0.10132500	          0.00600000	         -0.22637600	          0.00000000	          0.04895700	          0.00000000	          0.00000000	          0.00000000	          0.00000000	          0.68541900	          0.00000000	         -0.22386100	          0.00000000	          0.00000000	          0.00000000	
          0.01100000	        -56.99405700	        305.76259500	         12.46885500	          0.10159500	          0.00600000	         -0.22633300	          0.00000000	          0.05124400	          0.00000000	          0.00000000	          0.00000000	          0.00000000	          0.68541900	          0.00000000	         -0.22386100	          0.00000000	          0.00000000	          0.00000000	
          0.01150000	        -57.53695200	        307.26547500	         12.34807400	          0.10186500	          0.00600000	         -0.22629000	          0.00000000	          0.05355700	          0.00000000	          0.00000000	          0.00000000	          0.00000000	          0.68541900	          0.00000000	         -0.22386100	          0.00000000	          0.00000000	          0.00000000	
          0.01200000	        -58.08134100	        308.77731300	         12.22597300	          0.10213600	          0.00600000	         -0.22624600	          0.00000000	          0.05589800	          0.00000000	          0.00000000	          0.00000000	          0.00000000	          0.68541900	          0.00000000	         -0.22386100	          0.00000000	          0.00000000	          0.00000000	
          0.01250000	        -58.62718000	        310.29804300	         12.10254500	          0.10240600	          0.00600000	         -0.22620300	          0.00000000	          0.05826500	          0.00000000	          0.00000000	          0.00000000	          0.00000000	          0.68541900	          0.00000000	         -0.22386100	          0.00000000	          0.00000000	          0.00000000	
          0.01300000	        -59.17442500	        311.82759700	         11.97778600	          0.10267600	          0.00600000	         -0.22615800	          0.00000000	          0.06065800	          0.00000000	          0.00000000	          0.00000000	          0.00000000	          0.68541900	          0.00000000	         -0.22386100	          0.00000000	          0.00000000	          0.00000000	
          0.01350000	        -59.72303000	        313.36590600	         11.85169100	          0.10294600	          0.00600000	         -0.22611400	          0.00000000	          0.06307800	          0.00000000	          0.00000000	          0.00000000	          0.00000000	          0.68541900	          0.00000000	         -0.22386100	          0.00000000	          0.00000000	          0.00000000	
          0.01400000	        -60.27295100	        314.91289900	         11.72425400	          0.10321600	          0.00600000	         -0.22606900	          0.00000000	          0.06552300	          0.00000000	          0.00000000	          0.00000000	          0.00000000	          0.68541900	          0.00000000	         -0.22386100	          0.00000000	          0.00000000	          0.00000000	
